<?xml version="1.0" encoding="utf-8"?>
<!-- Generator: Adobe Illustrator 16.0.3, SVG Export Plug-In . SVG Version: 6.00 Build 0)  -->
<!DOCTYPE svg PUBLIC "-//W3C//DTD SVG 1.1//EN" "http://www.w3.org/Graphics/SVG/1.1/DTD/svg11.dtd">
<svg version="1.1" xmlns="http://www.w3.org/2000/svg" xmlns:xlink="http://www.w3.org/1999/xlink" x="0px" y="0px" width="212.6px"
	 height="141.73px" viewBox="0 0 212.6 141.73" enable-background="new 0 0 212.6 141.73" xml:space="preserve">
<g id="Calque_7" display="none">
	<polyline display="inline" fill="none" stroke="#000000" stroke-miterlimit="10" points="49.5,21.833 56,26.5 58.5,30 60.5,41.5 
		62.5,45.25 67.083,47.584 71.25,49 74.5,51.5 80.25,60.75 87,69.75 93.5,74 99.5,72.834 114.667,78 118,79 125.5,84.334 138.5,89 
		144.5,94.5 155.334,99.834 163.334,106.334 170.834,112.834 175.334,118.834 183.167,125 184.834,132.834 199,126.5 208.25,121.25 
		211,116.5 206.5,112.5 206.334,108.5 	"/>
	<polyline display="inline" fill="none" stroke="#000000" stroke-miterlimit="10" points="210.5,92.834 198.334,88.667 
		190.5,81.334 188.334,77 181.667,68.5 175.834,63 162.5,47.333 154.834,42.5 133.667,28.167 127.334,26.5 123.334,24.167 
		117.667,23.5 109.667,22.667 101.833,24.667 90.833,24.5 74.167,17.833 65.167,19 60,21.333 53.333,19 49.333,15 42.667,9 
		39.833,12.5 43.167,17.833 42.833,26.667 41.667,38.333 39.167,48.5 39,53 37.833,55.333 31.667,55.167 22.333,62.333 19.833,70 
		17.333,73.834 12.333,77.167 3.833,81.834 0,83.834 	"/>
	<polyline display="inline" fill="none" stroke="#000000" stroke-miterlimit="10" points="206.334,108.5 203.334,105.334 
		198,103.334 192.834,104 190,104.5 186.334,102.5 182.5,96.834 170.334,89.5 166.167,84.667 159.834,78 151.667,73.167 
		148.167,69.333 148.167,67.167 151.167,67.833 157.167,69.167 157.667,67 148,50.167 142.334,45.333 127.5,41.5 110.167,41.667 
		104.333,43.167 94.667,44.333 85.833,44.833 76.667,43.167 69,41.333 62.667,34.333 60,27.5 55.833,24.167 49.5,21.833 
		45.667,22.5 43.667,27.833 42.833,39.333 41.667,49.167 44.5,59.167 45.5,68 46,82.334 34.833,87 25.333,86 17.167,87.334 	"/>
</g>
<g id="Calque_10">
	<polygon fill="#E18800" points="210.5,92.834 198.334,88.667 190.5,81.334 188.334,77 181.667,68.5 175.834,63 162.5,47.333 
		154.834,42.5 133.667,28.167 127.334,26.5 123.334,24.167 117.667,23.5 109.667,22.667 101.833,24.667 90.833,24.5 74.167,17.833 
		65.167,19 60,21.333 53.333,19 49.333,15 42.667,9 39.833,12.5 43.167,17.833 42.833,26.667 41.667,38.333 39.167,48.5 39,53 
		37.833,55.333 31.667,55.167 22.333,62.333 19.833,70 17.333,73.834 12.333,77.167 3.833,81.834 0,83.834 0,48.25 4,36.75 
		12.5,29.5 24.25,24 32.75,22.75 35.25,18.75 31.5,15 18.5,8.5 11,8.5 0,2.75 0,0 132.25,0 143.5,8.5 159.5,17 183.5,25.5 
		191.75,27.5 202.75,35 212.6,42.5 212.6,81.75 	"/>
	<polygon fill="#E18800" points="169.667,0 189.834,9.833 202.667,12 212.6,22.5 212.6,0 	"/>
</g>
<g id="Calque_8">
	<polygon fill="#EFCD00" points="206.334,108.5 203.334,105.334 198,103.334 192.834,104 190,104.5 186.334,102.5 182.5,96.834 
		170.334,89.5 166.167,84.667 159.834,78 151.667,73.167 148.167,69.333 148.167,67.167 151.167,67.833 157.167,69.167 157.667,67 
		148,50.167 142.334,45.333 127.5,41.5 110.167,41.667 104.333,43.167 94.667,44.333 85.833,44.833 76.667,43.167 69,41.333 
		62.667,34.333 60,27.5 55.833,24.167 49.5,21.833 45.667,22.5 43.667,27.833 42.833,39.333 41.667,49.167 44.5,59.167 45.5,68 
		46,82.334 35,85.333 25.333,86 17.167,87.334 9.375,90.125 0,97.5 0,83.834 3.833,81.834 12.333,77.167 17.333,73.834 19.833,70 
		22.333,62.333 31.667,55.167 37.833,55.333 39,53 39.167,48.5 41.667,38.333 42.833,26.667 43.167,17.833 39.833,12.5 42.667,9 
		49.333,15 53.333,19 60,21.333 65.167,19 74.167,17.833 90.833,24.5 101.833,24.667 109.667,22.667 117.667,23.5 123.334,24.167 
		127.334,26.5 133.667,28.167 154.834,42.5 162.5,47.333 175.834,63 181.667,68.5 188.334,77 190.5,81.334 198.334,88.667 
		210.5,92.834 209.875,97.75 208.25,103.25 	"/>
</g>
<g id="Calque_9">
	<polygon fill="#8BB31D" points="206.334,108.5 203.334,105.334 198,103.334 192.834,104 190,104.5 186.334,102.5 182.5,96.834 
		170.334,89.5 166.167,84.667 159.834,78 151.667,73.167 148.167,69.333 148.167,67.167 151.167,67.833 157.167,69.167 157.667,67 
		148,50.167 142.334,45.333 127.5,41.5 110.167,41.667 104.333,43.167 94.667,44.333 85.833,44.833 76.667,43.167 69,41.333 
		62.667,34.333 60,27.5 55.833,24.167 49.5,21.833 56,26.5 58.5,30 60.5,41.5 62.5,45.25 67.083,47.584 71.25,49 74.5,51.5 
		80.25,60.75 87,69.75 93.5,74 99.5,72.834 114.667,78 118,79 125.5,84.334 138.5,89 144.5,94.5 155.334,99.834 163.334,106.334 
		170.834,112.834 175.334,118.834 183.167,125 184.834,132.834 199,126.5 208.25,121.25 211,116.5 206.5,112.5 	"/>
	<polygon fill="#8BB31D" points="46,82.334 44.5,84.625 32.125,87.125 25.333,86 35,85.333 	"/>
	<polygon fill="#8BB31D" points="0,97.75 8.625,90.625 17.875,87.125 29.625,86.5 32.125,87.125 44.5,84.625 46,82.334 
		46.25,69.875 44.875,63 42.375,68.625 38,69.25 32.375,68.5 23.875,71.125 21.25,75.75 22.125,81.25 19.5,84.375 13,86.875 
		5.5,89.625 0,93.875 	"/>
</g>
<g id="Calque_11">
	<polyline fill="#B2B2B2" points="0,48.25 4,36.75 12.5,29.5 24.25,24 32.75,22.75 35.25,18.75 31.5,15 24.833,11.833 11.167,14 
		0,19.5 0,48.25 	"/>
	<polygon fill="#B2B2B2" points="212.6,42.5 202.75,35 191.75,27.5 183.5,25.5 159.5,17 143.5,8.5 132.25,0 169.667,0 
		189.834,9.833 202.667,12 212.6,22.5 	"/>
</g>
<g id="Calque_12">
	<path fill="#008BCB" d="M-0.803,20.265c2.066-4.314,4.872-6.9,9.523-8.063c2.726-0.682,5.56-0.346,8.295-0.901
		c3.021-0.613,5.438-1.331,8.582-0.365c1.513,0.465,2.87,0.923,4.429,1.179c1.834,0.301,3.061-0.525,4.308-1.721
		c1.884-1.807,4.979-5.245,5.94-0.854c0.631,2.882,3.978,4.174,4.897,7.213c1.073,3.545-0.896,8.114-1.405,11.635
		c-0.518,3.577,0.751,7.414,1.917,10.726c2.383,6.768,6.583,12.846,9.943,19.141c2.474,4.636,4.322,9.677,6.491,14.468
		c3.569,7.884,7.517,15.644,10.826,23.641c0.282,0.68,1.722,0.271,1.449-0.389c-3.813-9.214-8.381-18.14-12.448-27.245
		c-2.575-5.766-5.069-11.408-8.201-16.917c-5.049-8.881-9.984-17.497-7.667-27.965c0.611-2.761,1.444-6.333,0.053-9.032
		c-0.75-1.456-1.473-2.315-2.667-3.371c-1.908-1.688-1.73-3.043-2.494-5.1c-1.379-3.712-6.161,1.692-7.014,2.671
		c-3.103,3.562-8.212,0.02-12.27,0.284c-3.923,0.256-8.028,1.052-11.947,1.609c-5.642,0.802-9.516,4.118-11.933,9.162
		C-2.564,20.835-1.097,20.878-0.803,20.265L-0.803,20.265z"/>
	<path fill="#008BCB" d="M-0.09,6.184c3.563-0.13,6.921,2.278,7.532,5.844c0.093,0.541,1.548,0.187,1.449-0.389
		C8.172,7.448,4.094,5.169,0.09,5.316C-0.658,5.344-1.087,6.22-0.09,6.184L-0.09,6.184z"/>
	<polygon fill="#80C2E8" points="183,141.73 182.75,140.25 180.625,140.5 180,137.125 148.375,107.5 144.875,105 140.625,104.875 
		141.134,103.526 130,95.875 109.125,86 104.125,85.125 101,85.667 98.375,89 95.875,89.375 83.75,98.75 79.625,102.5 
		77.875,101.125 74.75,96.25 72.25,96.625 55.375,90.25 43.125,87.125 38,86.75 28.5,89.375 13.625,93.75 10.5,96.75 0,106.625 
		0,141.73 	"/>
	<path fill="#008BCB" d="M210.732,141.604c0.508-7.642,3.054-14.955,2.667-22.667c-0.371-7.387-4.462-15.586,0.868-22.076
		c0.578-0.704-0.807-0.869-1.201-0.389c-4.137,5.037-3.013,10.869-1.905,16.841c1.841,9.931-1.241,18.62-1.894,28.416
		C209.22,142.453,210.69,142.224,210.732,141.604L210.732,141.604z"/>
</g>
<g id="Calque_3">
	<g id="CHEMINS">
		<g>
			<path fill="#575756" d="M0,96c-0.178,0-0.35-0.095-0.44-0.263c-0.131-0.243-0.041-0.546,0.203-0.678l0.88-0.475
				c0.242-0.129,0.546-0.041,0.677,0.203c0.131,0.243,0.041,0.546-0.203,0.678l-0.88,0.475C0.162,95.98,0.081,96,0,96z"/>
			<path fill="#575756" d="M2.429,94.69c-0.178,0-0.35-0.095-0.44-0.263c-0.131-0.243-0.041-0.546,0.203-0.678l1.548-0.835
				c0.242-0.128,0.546-0.04,0.677,0.203c0.131,0.243,0.041,0.546-0.203,0.678l-1.548,0.835C2.59,94.671,2.509,94.69,2.429,94.69z
				 M5.524,93.021c-0.178,0-0.35-0.095-0.44-0.263c-0.131-0.243-0.041-0.546,0.202-0.677l1.548-0.836
				c0.243-0.133,0.546-0.042,0.678,0.202c0.131,0.243,0.041,0.546-0.202,0.677l-1.548,0.837C5.686,93.001,5.604,93.021,5.524,93.021
				z"/>
			<path fill="#575756" d="M10.324,91.441c-0.098,0-0.196-0.028-0.283-0.088L9.469,90.96l-0.611,0.33
				c-0.243,0.129-0.546,0.041-0.677-0.203c-0.131-0.243-0.041-0.546,0.203-0.678l1.148-0.619l1.076,0.739
				c0.228,0.156,0.285,0.468,0.129,0.695C10.639,91.365,10.483,91.441,10.324,91.441z"/>
			<path fill="#575756" d="M71.872,94.874c-0.058,0-0.118-0.01-0.175-0.032l-1.886-0.706c-0.259-0.097-0.39-0.385-0.293-0.644
				c0.097-0.258,0.385-0.392,0.644-0.292l1.886,0.706c0.259,0.097,0.39,0.385,0.293,0.644C72.265,94.75,72.074,94.874,71.872,94.874
				z M68.1,93.462c-0.058,0-0.118-0.01-0.175-0.031l-1.886-0.706c-0.259-0.098-0.39-0.386-0.293-0.644
				c0.097-0.259,0.384-0.39,0.644-0.294l1.886,0.706c0.259,0.098,0.39,0.386,0.293,0.644C68.493,93.338,68.302,93.462,68.1,93.462z
				 M12.083,92.191c-0.254,0-0.471-0.192-0.497-0.45c-0.027-0.274,0.173-0.52,0.448-0.547l2.004-0.2
				c0.284-0.032,0.52,0.173,0.547,0.447s-0.173,0.52-0.448,0.547l-2.004,0.2C12.117,92.19,12.1,92.191,12.083,92.191z M64.327,92.05
				c-0.058,0-0.118-0.01-0.175-0.031l-1.886-0.706c-0.259-0.098-0.39-0.386-0.293-0.644c0.097-0.259,0.386-0.391,0.644-0.294
				l1.886,0.706c0.259,0.098,0.39,0.386,0.293,0.644C64.72,91.926,64.53,92.05,64.327,92.05z M16.091,91.791
				c-0.254,0-0.471-0.192-0.497-0.45c-0.027-0.274,0.173-0.52,0.448-0.547l0.354-0.036l1.471-0.484
				c0.262-0.09,0.545,0.056,0.632,0.318c0.086,0.262-0.056,0.545-0.318,0.631l-1.63,0.524l-0.408,0.041
				C16.125,91.79,16.108,91.791,16.091,91.791z M60.555,90.638c-0.058,0-0.118-0.01-0.175-0.032l-1.886-0.706
				c-0.259-0.097-0.39-0.385-0.293-0.644c0.097-0.258,0.385-0.394,0.644-0.292l1.886,0.706c0.259,0.097,0.39,0.385,0.293,0.644
				C60.948,90.514,60.757,90.638,60.555,90.638z M19.936,90.618c-0.21,0-0.405-0.133-0.475-0.344
				c-0.087-0.262,0.056-0.545,0.318-0.631l1.913-0.631c0.264-0.091,0.545,0.055,0.631,0.318c0.087,0.262-0.056,0.545-0.318,0.631
				l-1.913,0.631C20.041,90.61,19.988,90.618,19.936,90.618z M23.761,89.357c-0.21,0-0.405-0.133-0.475-0.344
				c-0.087-0.262,0.056-0.545,0.318-0.631l1.913-0.631c0.263-0.089,0.545,0.056,0.631,0.318c0.087,0.262-0.056,0.545-0.318,0.631
				l-1.913,0.631C23.866,89.35,23.813,89.357,23.761,89.357z M56.783,89.226c-0.058,0-0.118-0.01-0.175-0.031l-1.886-0.706
				c-0.259-0.098-0.39-0.386-0.293-0.644c0.097-0.259,0.386-0.391,0.644-0.294l1.886,0.706c0.259,0.098,0.39,0.386,0.293,0.644
				C57.176,89.102,56.985,89.226,56.783,89.226z M29.604,88.226c-0.008,0-0.016,0-0.024-0.001l-2.012-0.097
				c-0.276-0.013-0.489-0.247-0.476-0.523c0.014-0.275,0.252-0.507,0.523-0.475l2.012,0.097c0.276,0.013,0.489,0.247,0.476,0.523
				C30.089,88.018,29.869,88.226,29.604,88.226z M31.582,87.934c-0.23,0-0.437-0.159-0.488-0.394
				c-0.059-0.27,0.112-0.536,0.382-0.595l1.968-0.429c0.267-0.061,0.536,0.111,0.595,0.382c0.059,0.27-0.112,0.536-0.382,0.595
				l-1.968,0.429C31.653,87.93,31.617,87.934,31.582,87.934z M53.01,87.813c-0.058,0-0.117-0.01-0.175-0.031l-1.886-0.705
				c-0.258-0.097-0.39-0.385-0.293-0.644s0.383-0.391,0.644-0.294l1.886,0.705c0.258,0.097,0.39,0.385,0.293,0.644
				C53.403,87.689,53.213,87.813,53.01,87.813z M35.518,87.077c-0.23,0-0.437-0.16-0.488-0.394
				c-0.059-0.271,0.113-0.536,0.383-0.595l1.968-0.428c0.267-0.059,0.536,0.112,0.595,0.382c0.059,0.271-0.113,0.536-0.383,0.595
				l-1.968,0.428C35.588,87.073,35.553,87.077,35.518,87.077z M49.231,86.426c-0.044,0-0.089-0.006-0.133-0.018l-1.942-0.534
				c-0.266-0.073-0.422-0.349-0.349-0.615c0.073-0.266,0.347-0.42,0.615-0.35l1.942,0.534c0.266,0.073,0.422,0.349,0.349,0.615
				C49.651,86.28,49.45,86.426,49.231,86.426z M39.454,86.222c-0.23,0-0.437-0.16-0.488-0.394c-0.059-0.271,0.113-0.536,0.383-0.595
				l1.968-0.428c0.268-0.062,0.535,0.113,0.595,0.382c0.059,0.271-0.113,0.536-0.383,0.595L39.56,86.21
				C39.524,86.218,39.489,86.222,39.454,86.222z M43.39,85.366c-0.23,0-0.437-0.16-0.488-0.394
				c-0.059-0.271,0.113-0.536,0.383-0.595l1.229-0.268l0.965,0.265c0.266,0.073,0.423,0.349,0.35,0.615
				c-0.073,0.266-0.351,0.419-0.614,0.35l-0.728-0.2l-0.99,0.215C43.46,85.362,43.425,85.366,43.39,85.366z"/>
			<path fill="#575756" d="M75.637,95.272c-0.115,0-0.23-0.039-0.324-0.119l-0.604-0.513l-0.79,0.065
				c-0.283,0.018-0.517-0.182-0.54-0.457c-0.023-0.274,0.181-0.517,0.457-0.539l1.204-0.101l0.92,0.782
				c0.21,0.179,0.236,0.494,0.057,0.705C75.919,95.213,75.778,95.272,75.637,95.272z"/>
			<path fill="#575756" d="M141.499,101.156c-0.093,0-0.186-0.025-0.269-0.078l-1.657-1.057c-0.233-0.148-0.302-0.458-0.153-0.69
				c0.149-0.233,0.459-0.3,0.69-0.153l1.657,1.057c0.233,0.148,0.302,0.458,0.153,0.69
				C141.825,101.074,141.664,101.156,141.499,101.156z M138.184,99.043c-0.093,0-0.186-0.025-0.269-0.078l-1.657-1.057
				c-0.233-0.148-0.302-0.458-0.153-0.69c0.149-0.232,0.46-0.3,0.69-0.153l1.657,1.057c0.233,0.148,0.302,0.458,0.153,0.69
				C138.51,98.961,138.349,99.043,138.184,99.043z M134.868,96.93c-0.093,0-0.186-0.025-0.269-0.078l-1.657-1.057
				c-0.233-0.148-0.302-0.458-0.153-0.69c0.149-0.234,0.46-0.301,0.69-0.153l1.657,1.057c0.233,0.148,0.302,0.458,0.153,0.69
				C135.194,96.848,135.033,96.93,134.868,96.93z M81.743,96.75h-0.752c-0.276,0-0.5-0.224-0.5-0.5s0.224-0.5,0.5-0.5h0.516
				l1.086-0.543c0.248-0.124,0.547-0.022,0.671,0.224c0.124,0.247,0.023,0.547-0.224,0.671L81.743,96.75z M79.025,96.75h-1.834
				l-0.38-0.323c-0.21-0.179-0.236-0.494-0.057-0.705c0.178-0.211,0.494-0.236,0.705-0.057l0.1,0.085h1.467
				c0.276,0,0.5,0.224,0.5,0.5S79.302,96.75,79.025,96.75z M84.575,95.275c-0.184,0-0.36-0.102-0.448-0.276
				c-0.124-0.247-0.023-0.547,0.224-0.671l1.758-0.879c0.247-0.124,0.546-0.022,0.671,0.224c0.124,0.247,0.023,0.547-0.224,0.671
				l-1.758,0.879C84.727,95.259,84.65,95.275,84.575,95.275z M131.517,94.879c-0.083,0-0.167-0.021-0.244-0.063l-1.716-0.96
				c-0.241-0.135-0.327-0.439-0.192-0.681c0.136-0.242,0.441-0.325,0.681-0.192l1.716,0.96c0.241,0.135,0.327,0.439,0.192,0.681
				C131.861,94.787,131.691,94.879,131.517,94.879z M88.091,93.517c-0.184,0-0.36-0.102-0.448-0.276
				c-0.124-0.247-0.023-0.548,0.224-0.671l1.758-0.879c0.248-0.125,0.548-0.023,0.671,0.224c0.124,0.247,0.023,0.548-0.224,0.671
				l-1.758,0.879C88.243,93.5,88.167,93.517,88.091,93.517z M128.086,92.958c-0.083,0-0.167-0.021-0.244-0.063l-1.715-0.96
				c-0.241-0.135-0.327-0.439-0.192-0.681c0.136-0.242,0.44-0.326,0.681-0.192l1.715,0.96c0.241,0.135,0.327,0.439,0.192,0.681
				C128.431,92.866,128.261,92.958,128.086,92.958z M91.608,91.759c-0.184,0-0.36-0.102-0.448-0.276
				c-0.124-0.247-0.023-0.547,0.224-0.671l0.465-0.232l1.018-0.854c0.213-0.179,0.527-0.149,0.704,0.062
				c0.178,0.211,0.15,0.526-0.062,0.704l-1.16,0.956l-0.518,0.259C91.759,91.742,91.683,91.759,91.608,91.759z M124.655,91.037
				c-0.083,0-0.167-0.021-0.244-0.063l-1.715-0.96c-0.241-0.135-0.327-0.439-0.192-0.681c0.136-0.242,0.441-0.326,0.681-0.192
				l1.715,0.96c0.241,0.135,0.327,0.439,0.192,0.681C125,90.945,124.83,91.037,124.655,91.037z M94.693,89.345
				c-0.143,0-0.285-0.061-0.383-0.179c-0.178-0.211-0.15-0.526,0.062-0.704l1.506-1.264c0.213-0.178,0.527-0.149,0.704,0.062
				c0.178,0.211,0.15,0.526-0.062,0.704l-1.506,1.264C94.92,89.307,94.807,89.345,94.693,89.345z M121.226,89.116
				c-0.083,0-0.167-0.021-0.244-0.063l-1.715-0.96c-0.241-0.135-0.327-0.439-0.192-0.681c0.136-0.242,0.44-0.325,0.681-0.192
				l1.715,0.96c0.241,0.135,0.327,0.439,0.192,0.681C121.57,89.024,121.4,89.116,121.226,89.116z M117.795,87.195
				c-0.083,0-0.167-0.021-0.244-0.063l-0.736-0.412l-0.957-0.235c-0.269-0.065-0.433-0.336-0.366-0.604
				c0.065-0.269,0.336-0.432,0.604-0.366l1.148,0.3l0.795,0.445c0.241,0.136,0.327,0.44,0.192,0.681
				C118.14,87.104,117.97,87.195,117.795,87.195z M97.705,86.817c-0.143,0-0.285-0.061-0.383-0.179
				c-0.178-0.211-0.15-0.526,0.062-0.704l1.602-1.303c0.243-0.13,0.546-0.041,0.678,0.203c0.131,0.243,0.041,0.546-0.202,0.678
				l-0.053,0.028L98.026,86.7C97.933,86.779,97.818,86.817,97.705,86.817z M114.067,86.03c-0.039,0-0.079-0.005-0.119-0.015
				l-1.909-0.469c-0.269-0.065-0.433-0.336-0.366-0.604c0.065-0.268,0.333-0.431,0.604-0.366l1.909,0.469
				c0.269,0.065,0.433,0.336,0.366,0.604C114.497,85.878,114.293,86.03,114.067,86.03z M110.249,85.093
				c-0.039,0-0.079-0.005-0.119-0.015l-1.909-0.469c-0.269-0.065-0.433-0.336-0.366-0.604c0.065-0.269,0.334-0.433,0.604-0.366
				l1.909,0.469c0.269,0.065,0.433,0.336,0.366,0.604C110.679,84.94,110.475,85.093,110.249,85.093z M100.949,84.631
				c-0.177,0-0.349-0.094-0.439-0.261c-0.132-0.242-0.043-0.546,0.2-0.678l1.726-0.941c0.241-0.134,0.546-0.045,0.678,0.199
				c0.132,0.242,0.043,0.546-0.2,0.678l-1.726,0.941C101.112,84.611,101.03,84.631,100.949,84.631z M106.431,84.155
				c-0.04,0-0.08-0.005-0.12-0.015l-1.909-0.468c-0.268-0.065-0.432-0.336-0.367-0.604c0.066-0.269,0.339-0.43,0.605-0.366
				l1.909,0.468c0.268,0.065,0.432,0.336,0.367,0.604C106.86,84.003,106.656,84.155,106.431,84.155z"/>
			<path fill="#575756" d="M144,102.75c-0.093,0-0.186-0.025-0.269-0.078l-0.844-0.537c-0.232-0.148-0.302-0.457-0.153-0.69
				c0.149-0.233,0.46-0.299,0.69-0.153l0.844,0.537c0.232,0.148,0.302,0.457,0.153,0.69C144.326,102.668,144.165,102.75,144,102.75z
				"/>
		</g>
		<g>
			<path fill="#575756" d="M24.713,9.021c-0.045,0-0.09-0.006-0.136-0.019l-1.176-0.331l-0.849-1.698
				c-0.124-0.247-0.023-0.547,0.224-0.671c0.247-0.123,0.547-0.023,0.671,0.224l0.651,1.302l0.75,0.21
				c0.266,0.075,0.421,0.351,0.346,0.617C25.132,8.876,24.932,9.021,24.713,9.021z"/>
			<path fill="#575756" d="M32.773,11.288c-0.045,0-0.091-0.006-0.136-0.019l-2.015-0.567c-0.266-0.075-0.421-0.351-0.346-0.617
				c0.075-0.266,0.354-0.418,0.617-0.346l2.015,0.567c0.266,0.075,0.421,0.351,0.346,0.617
				C33.192,11.144,32.991,11.288,32.773,11.288z M28.743,10.154c-0.045,0-0.091-0.006-0.136-0.019l-2.015-0.567
				c-0.266-0.075-0.421-0.351-0.346-0.617s0.355-0.418,0.617-0.346l2.015,0.567c0.266,0.075,0.421,0.351,0.346,0.617
				C29.162,10.01,28.961,10.154,28.743,10.154z"/>
			<path fill="#575756" d="M35.363,13.047c-0.064,0-0.13-0.012-0.193-0.039c-0.254-0.106-0.375-0.399-0.268-0.654l0.168-0.401
				l-0.418-0.117c-0.266-0.075-0.421-0.351-0.346-0.617c0.075-0.266,0.352-0.419,0.617-0.346l1.507,0.424l-0.605,1.444
				C35.744,12.932,35.559,13.047,35.363,13.047z"/>
			<path fill="#575756" d="M43.864,82.22c-0.23,0-0.437-0.159-0.488-0.394l-0.422-1.929c-0.059-0.27,0.112-0.536,0.381-0.595
				c0.27-0.061,0.537,0.111,0.595,0.382l0.422,1.929c0.059,0.27-0.112,0.536-0.381,0.595C43.935,82.216,43.899,82.22,43.864,82.22z
				 M43.02,78.362c-0.23,0-0.437-0.159-0.488-0.394L42.11,76.04c-0.059-0.27,0.112-0.536,0.381-0.595
				c0.271-0.059,0.537,0.111,0.595,0.382l0.422,1.929c0.059,0.27-0.112,0.536-0.381,0.595C43.091,78.358,43.055,78.362,43.02,78.362
				z M42.176,74.505c-0.23,0-0.437-0.159-0.488-0.394l-0.422-1.929c-0.059-0.27,0.112-0.536,0.381-0.595
				c0.271-0.06,0.537,0.111,0.595,0.381l0.422,1.929c0.059,0.27-0.112,0.536-0.381,0.595C42.248,74.501,42.211,74.505,42.176,74.505
				z M41.333,70.648c-0.23,0-0.437-0.159-0.488-0.393l-0.422-1.928c-0.059-0.27,0.112-0.536,0.381-0.595
				c0.271-0.059,0.537,0.111,0.595,0.381l0.422,1.928c0.059,0.27-0.112,0.536-0.381,0.595
				C41.404,70.644,41.368,70.648,41.333,70.648z M40.489,66.791c-0.23,0-0.437-0.159-0.488-0.393l-0.422-1.929
				c-0.059-0.27,0.112-0.537,0.381-0.595c0.272-0.061,0.537,0.112,0.595,0.381l0.422,1.929c0.059,0.27-0.112,0.537-0.381,0.595
				C40.56,66.787,40.524,66.791,40.489,66.791z M39.645,62.934c-0.23,0-0.437-0.159-0.488-0.393l-0.421-1.945
				c-0.05-0.271,0.129-0.532,0.4-0.583c0.271-0.049,0.532,0.128,0.583,0.4l0.022,0.121l0.392,1.793
				c0.059,0.27-0.112,0.537-0.381,0.595C39.716,62.93,39.68,62.934,39.645,62.934z M38.864,59.064c-0.236,0-0.446-0.167-0.491-0.408
				l-0.363-1.94c-0.05-0.271,0.128-0.533,0.4-0.583c0.273-0.046,0.533,0.128,0.583,0.4l0.363,1.94c0.05,0.271-0.128,0.533-0.4,0.583
				C38.926,59.061,38.895,59.064,38.864,59.064z M38.138,55.183c-0.236,0-0.446-0.167-0.491-0.408l-0.363-1.94
				c-0.05-0.271,0.128-0.533,0.4-0.583c0.273-0.045,0.533,0.128,0.583,0.4l0.363,1.94c0.05,0.271-0.128,0.533-0.4,0.583
				C38.2,55.18,38.168,55.183,38.138,55.183z M37.413,51.302c-0.236,0-0.446-0.167-0.491-0.408l-0.363-1.94
				c-0.05-0.271,0.128-0.533,0.4-0.583c0.27-0.044,0.533,0.128,0.583,0.4l0.363,1.94c0.05,0.271-0.128,0.533-0.4,0.583
				C37.474,51.299,37.443,51.302,37.413,51.302z M36.687,47.421c-0.236,0-0.446-0.167-0.491-0.408l-0.364-1.937
				c-0.053-0.271,0.125-0.534,0.396-0.586c0.272-0.051,0.534,0.125,0.586,0.396l0.366,1.944c0.051,0.271-0.128,0.533-0.4,0.583
				C36.749,47.418,36.717,47.421,36.687,47.421z M35.947,43.542c-0.235,0-0.444-0.166-0.49-0.405l-0.375-1.938
				c-0.053-0.271,0.125-0.534,0.396-0.586c0.274-0.054,0.534,0.125,0.586,0.396l0.375,1.938c0.053,0.271-0.125,0.534-0.396,0.586
				C36.01,43.54,35.978,43.542,35.947,43.542z M35.196,39.666c-0.235,0-0.444-0.166-0.49-0.405l-0.375-1.938
				c-0.053-0.271,0.125-0.534,0.396-0.586c0.272-0.058,0.533,0.125,0.586,0.396l0.375,1.938c0.053,0.271-0.125,0.534-0.396,0.586
				C35.259,39.663,35.227,39.666,35.196,39.666z M34.445,35.79c-0.235,0-0.444-0.166-0.49-0.405l-0.375-1.938
				c-0.053-0.271,0.125-0.534,0.396-0.586c0.271-0.057,0.533,0.125,0.586,0.396l0.375,1.938c0.053,0.271-0.125,0.534-0.396,0.586
				C34.508,35.787,34.476,35.79,34.445,35.79z M33.694,31.914c-0.235,0-0.444-0.166-0.49-0.405l-0.375-1.938
				c-0.053-0.271,0.125-0.534,0.396-0.586c0.273-0.056,0.533,0.125,0.586,0.396l0.375,1.938c0.053,0.271-0.125,0.534-0.396,0.586
				C33.757,31.911,33.725,31.914,33.694,31.914z M32.943,28.037c-0.235,0-0.444-0.166-0.49-0.405l-0.375-1.938
				c-0.053-0.271,0.125-0.534,0.396-0.586c0.271-0.055,0.533,0.125,0.586,0.396l0.375,1.938c0.053,0.271-0.125,0.534-0.396,0.586
				C33.006,28.034,32.974,28.037,32.943,28.037z M33.261,24.322c-0.08,0-0.16-0.019-0.235-0.059
				c-0.244-0.13-0.336-0.433-0.206-0.676l0.929-1.742c0.13-0.244,0.433-0.335,0.676-0.206c0.244,0.13,0.336,0.433,0.206,0.676
				l-0.929,1.742C33.613,24.226,33.44,24.322,33.261,24.322z M34.417,20.686c-0.262,0-0.482-0.204-0.499-0.469l-0.123-1.97
				c-0.017-0.276,0.192-0.513,0.468-0.53c0.286-0.01,0.513,0.192,0.53,0.468l0.123,1.97c0.017,0.276-0.192,0.513-0.468,0.53
				C34.438,20.685,34.428,20.686,34.417,20.686z M34.171,16.745c-0.262,0-0.482-0.204-0.499-0.469l-0.054-0.862l0.52-1.24
				c0.106-0.255,0.398-0.375,0.654-0.268c0.254,0.106,0.375,0.399,0.268,0.654l-0.429,1.024l0.039,0.628
				c0.017,0.276-0.192,0.513-0.468,0.53C34.192,16.745,34.181,16.745,34.171,16.745z"/>
			<path fill="#575756" d="M44.5,85.125c-0.23,0-0.437-0.159-0.488-0.393l-0.214-0.977c-0.059-0.271,0.111-0.537,0.381-0.596
				c0.267-0.06,0.536,0.111,0.595,0.381l0.214,0.977c0.059,0.271-0.111,0.537-0.381,0.596C44.571,85.121,44.535,85.125,44.5,85.125z
				"/>
		</g>
		<path fill="#575756" d="M188.167,142.23c-0.187,0-0.365-0.104-0.451-0.284l-0.223-0.466c-0.119-0.249-0.014-0.548,0.235-0.667
			c0.247-0.12,0.548-0.015,0.667,0.235l0.223,0.466c0.119,0.249,0.014,0.548-0.235,0.667
			C188.313,142.215,188.239,142.23,188.167,142.23z M187.082,139.96c-0.187,0-0.365-0.104-0.451-0.284l-0.863-1.805
			c-0.119-0.249-0.014-0.548,0.235-0.667c0.247-0.119,0.547-0.015,0.667,0.235l0.863,1.805c0.119,0.249,0.014,0.548-0.235,0.667
			C187.229,139.944,187.154,139.96,187.082,139.96z M185.044,136.641c-0.085,0-0.171-0.021-0.25-0.067l-1.732-1
			c-0.239-0.138-0.321-0.443-0.183-0.683c0.138-0.238,0.445-0.321,0.683-0.183l1.732,1c0.239,0.138,0.321,0.443,0.183,0.683
			C185.385,136.551,185.216,136.641,185.044,136.641z M181.579,134.642c-0.085,0-0.171-0.021-0.25-0.066l-1.732-0.999
			c-0.239-0.139-0.321-0.444-0.184-0.684s0.443-0.32,0.684-0.184l1.732,0.999c0.239,0.139,0.321,0.444,0.184,0.684
			C181.92,134.552,181.752,134.642,181.579,134.642z M178.114,132.643c-0.085,0-0.171-0.021-0.25-0.066l-1.198-0.704l-0.531-0.477
			c-0.205-0.185-0.223-0.5-0.038-0.706c0.184-0.206,0.5-0.223,0.706-0.038l0.492,0.441l1.069,0.616
			c0.239,0.139,0.321,0.444,0.184,0.684C178.455,132.553,178.287,132.643,178.114,132.643z M174.979,130.189
			c-0.119,0-0.238-0.042-0.333-0.128l-1.49-1.334c-0.206-0.184-0.224-0.5-0.039-0.705c0.185-0.208,0.501-0.224,0.705-0.039
			l1.49,1.334c0.206,0.184,0.224,0.5,0.039,0.705C175.252,130.133,175.115,130.189,174.979,130.189z M171.999,127.521
			c-0.119,0-0.238-0.042-0.333-0.128l-1.49-1.334c-0.206-0.184-0.224-0.5-0.039-0.705c0.184-0.207,0.502-0.225,0.705-0.039
			l1.49,1.334c0.206,0.184,0.224,0.5,0.039,0.705C172.272,127.464,172.136,127.521,171.999,127.521z M169.02,124.853
			c-0.119,0-0.238-0.042-0.333-0.128l-1.49-1.334c-0.206-0.184-0.224-0.5-0.039-0.705c0.185-0.207,0.501-0.224,0.705-0.039
			l1.49,1.334c0.206,0.184,0.224,0.5,0.039,0.705C169.293,124.796,169.156,124.853,169.02,124.853z M166.039,122.184
			c-0.119,0-0.238-0.042-0.334-0.128l-1.489-1.334c-0.205-0.184-0.223-0.5-0.038-0.706c0.185-0.205,0.5-0.223,0.706-0.038
			l1.489,1.334c0.205,0.184,0.223,0.5,0.038,0.706C166.313,122.127,166.176,122.184,166.039,122.184z M163.06,119.516
			c-0.119,0-0.238-0.042-0.334-0.128l-1.489-1.335c-0.205-0.184-0.223-0.5-0.038-0.706c0.184-0.207,0.5-0.224,0.706-0.038
			l1.489,1.335c0.205,0.184,0.223,0.5,0.038,0.706C163.333,119.46,163.196,119.516,163.06,119.516z M160.08,116.847
			c-0.119,0-0.238-0.042-0.333-0.128l-1.49-1.334c-0.206-0.184-0.224-0.5-0.039-0.705c0.184-0.207,0.501-0.225,0.705-0.039
			l1.49,1.334c0.206,0.184,0.224,0.5,0.039,0.705C160.354,116.79,160.217,116.847,160.08,116.847z M157.101,114.178
			c-0.119,0-0.238-0.042-0.333-0.128l-1.49-1.334c-0.206-0.184-0.224-0.5-0.039-0.705c0.184-0.207,0.501-0.224,0.705-0.039
			l1.49,1.334c0.206,0.184,0.224,0.5,0.039,0.705C157.374,114.121,157.237,114.178,157.101,114.178z M154.121,111.51
			c-0.119,0-0.238-0.042-0.334-0.128l-1.49-1.335c-0.205-0.184-0.223-0.5-0.038-0.706c0.185-0.207,0.5-0.223,0.706-0.038l1.49,1.335
			c0.205,0.184,0.223,0.5,0.038,0.706C154.395,111.454,154.258,111.51,154.121,111.51z M151.141,108.841
			c-0.119,0-0.238-0.042-0.334-0.128l-1.489-1.334c-0.205-0.184-0.223-0.5-0.038-0.706c0.185-0.205,0.5-0.224,0.706-0.038
			l1.489,1.334c0.205,0.184,0.223,0.5,0.038,0.706C151.414,108.785,151.277,108.841,151.141,108.841z M148.161,106.172
			c-0.119,0-0.238-0.042-0.334-0.128l-1.489-1.334c-0.205-0.184-0.223-0.5-0.038-0.706c0.184-0.205,0.5-0.224,0.706-0.038
			l1.489,1.334c0.205,0.184,0.223,0.5,0.038,0.706C148.435,106.115,148.298,106.172,148.161,106.172z M145.877,103.003
			c-0.193,0-0.377-0.113-0.459-0.302l-0.793-1.836c-0.109-0.254,0.007-0.548,0.261-0.657c0.251-0.112,0.547,0.007,0.657,0.261
			l0.793,1.836c0.109,0.254-0.007,0.548-0.261,0.657C146.011,102.99,145.943,103.003,145.877,103.003z"/>
		<path fill="#575756" d="M177.401,130.752c-0.051,0-0.103-0.008-0.153-0.024c-0.263-0.084-0.407-0.365-0.322-0.629l0.611-1.903
			c0.084-0.263,0.364-0.408,0.629-0.322c0.263,0.084,0.407,0.365,0.322,0.629l-0.611,1.903
			C177.81,130.617,177.613,130.752,177.401,130.752z M178.5,126.925c-0.276,0-0.5-0.224-0.5-0.5v-2c0-0.276,0.224-0.5,0.5-0.5
			s0.5,0.224,0.5,0.5v2C179,126.701,178.776,126.925,178.5,126.925z M178.5,122.925c-0.276,0-0.5-0.224-0.5-0.5v-0.699l-0.273-1.152
			c-0.063-0.269,0.103-0.538,0.371-0.602c0.265-0.067,0.538,0.102,0.602,0.371l0.301,1.324v0.758
			C179,122.701,178.776,122.925,178.5,122.925z M177.752,119.013c-0.227,0-0.432-0.154-0.486-0.385l-0.462-1.946
			c-0.063-0.269,0.103-0.538,0.371-0.602c0.271-0.067,0.538,0.102,0.602,0.371l0.462,1.946c0.063,0.269-0.103,0.538-0.371,0.602
			C177.829,119.009,177.79,119.013,177.752,119.013z M176.828,115.12c-0.227,0-0.432-0.154-0.486-0.385l-0.462-1.945
			c-0.063-0.269,0.103-0.538,0.371-0.602c0.263-0.068,0.537,0.102,0.602,0.371l0.462,1.945c0.063,0.269-0.103,0.538-0.371,0.602
			C176.905,115.116,176.866,115.12,176.828,115.12z M176.789,111.383c-0.095,0-0.189-0.026-0.274-0.082
			c-0.23-0.151-0.295-0.461-0.144-0.692l1.096-1.673c0.15-0.232,0.462-0.295,0.692-0.144s0.295,0.461,0.144,0.692l-1.096,1.673
			C177.111,111.304,176.951,111.383,176.789,111.383z M178.979,108.036c-0.095,0-0.189-0.026-0.274-0.082
			c-0.23-0.151-0.295-0.461-0.144-0.692l1.096-1.673c0.151-0.232,0.461-0.295,0.692-0.144c0.23,0.151,0.295,0.461,0.144,0.692
			l-1.096,1.673C179.302,107.957,179.142,108.036,178.979,108.036z M181.171,104.689c-0.095,0-0.189-0.026-0.273-0.082
			c-0.231-0.15-0.296-0.461-0.145-0.691l0.931-1.47c0.022-0.274,0.248-0.478,0.539-0.457c0.274,0.022,0.479,0.264,0.457,0.539
			l-0.024,0.306l-1.066,1.629C181.493,104.609,181.333,104.689,181.171,104.689z M182.342,100.993c-0.014,0-0.027-0.001-0.041-0.002
			c-0.275-0.021-0.48-0.263-0.458-0.538l0.159-1.993c0.021-0.275,0.27-0.473,0.538-0.458c0.275,0.021,0.48,0.263,0.458,0.538
			l-0.159,1.993C182.818,100.795,182.6,100.993,182.342,100.993z"/>
		<path fill="#575756" d="M194.34,125.513l-0.421-0.089c-0.271-0.057-0.443-0.322-0.387-0.592c0.057-0.271,0.327-0.447,0.592-0.387
			l0.202,0.042l1.526-0.364c0.272-0.069,0.539,0.103,0.603,0.37c0.064,0.269-0.102,0.538-0.37,0.603L194.34,125.513z
			 M192.065,125.022c-0.034,0-0.069-0.003-0.104-0.011l-1.957-0.412c-0.27-0.057-0.442-0.322-0.386-0.592
			c0.057-0.271,0.319-0.446,0.593-0.387l1.956,0.412c0.271,0.057,0.443,0.322,0.387,0.593
			C192.504,124.861,192.296,125.022,192.065,125.022z M197.914,124.645c-0.227,0-0.432-0.154-0.486-0.384
			c-0.064-0.269,0.102-0.538,0.37-0.603l1.945-0.465c0.27-0.069,0.538,0.103,0.603,0.37c0.064,0.269-0.102,0.538-0.37,0.603
			l-1.945,0.465C197.991,124.641,197.952,124.645,197.914,124.645z M188.151,124.198c-0.034,0-0.069-0.003-0.104-0.011l-1.957-0.412
			c-0.27-0.057-0.442-0.322-0.386-0.593c0.058-0.271,0.32-0.445,0.593-0.386l1.957,0.412c0.27,0.057,0.442,0.322,0.386,0.593
			C188.59,124.037,188.382,124.198,188.151,124.198z M201.805,123.715c-0.227,0-0.432-0.154-0.486-0.384
			c-0.064-0.269,0.102-0.538,0.37-0.603l1.945-0.465c0.271-0.069,0.538,0.103,0.603,0.37c0.064,0.269-0.102,0.538-0.37,0.603
			l-1.945,0.465C201.882,123.711,201.843,123.715,201.805,123.715z M184.237,123.375c-0.034,0-0.069-0.003-0.104-0.011l-1.956-0.412
			c-0.271-0.057-0.443-0.322-0.387-0.592c0.058-0.271,0.321-0.447,0.593-0.387l1.957,0.412c0.27,0.057,0.442,0.322,0.386,0.593
			C184.676,123.214,184.468,123.375,184.237,123.375z M180.323,122.551c-0.034,0-0.069-0.004-0.104-0.011l-1.822-0.384
			c-0.27-0.057-0.442-0.322-0.386-0.593s0.319-0.444,0.593-0.386l1.822,0.384c0.27,0.057,0.442,0.322,0.386,0.593
			C180.762,122.39,180.554,122.551,180.323,122.551z"/>
	</g>
	<g id="AUTOROUTE">
		<path fill="#575756" d="M70.278,48.718c5.056-3.351,11.488-5.782,15.091-10.93c3.766-5.381-3.047-12.983-7.338-15.951
			c-0.679-0.469-3.159,0.696-2.729,0.994c3.668,2.537,10.143,9.372,7.934,14.421c-2.4,5.489-10.487,8.252-15.182,11.363
			C66.841,49.419,69.755,49.065,70.278,48.718L70.278,48.718z"/>
		<path fill="#575756" d="M65.213,15.918c4.26,2.403,8.953,3.507,13.084,6.192c3.359,2.183,6.768,4.125,10.579,5.408
			c6.233,2.099,13.384,3.201,19.842,1.6c1.74-0.432,1.375-1.747-0.354-1.318c-6.919,1.716-15.206-0.449-21.536-3.369
			c-3.097-1.429-5.87-3.499-8.771-5.276c-3.244-1.987-7.186-2.689-10.521-4.571C66.776,14.153,64.088,15.284,65.213,15.918
			L65.213,15.918z"/>
		<path fill="#575756" d="M94.621,29.1c1.342,0.446,2.713,1.066,3.602,2.208c1.382,1.776-1.251,3.242-2.534,3.895
			c-1.324,0.673-0.134,1.816,0.957,1.262c1.887-0.959,4.617-2.55,4.079-5.075c-0.432-2.026-3.122-3.167-4.844-3.74
			C94.961,27.345,93.318,28.667,94.621,29.1L94.621,29.1z"/>
		<path fill="#575756" d="M94.329,37.764c2.833,2.606,6.128,6.039,3.699,10.005c-2.124,3.467-5.708,1.839-7.69-0.7
			c-1.411-1.807-0.319-5.778,1.338-7.041c1.566-1.194-0.851-1.819-1.851-1.057c-2.48,1.891-3.41,5.132-2.697,8.136
			c0.774,3.261,5.204,4.838,8.136,4.695c3.308-0.161,6.307-3.933,6.619-7.017c0.335-3.318-2.68-6.194-4.879-8.217
			C96.164,35.797,93.429,36.936,94.329,37.764L94.329,37.764z"/>
		<path fill="#575756" d="M43.823,0.553c36.429,25.939,72.458,52.533,109.67,77.341c8.405,5.604,17.027,10.252,25.95,15.027
			c8.367,4.479,17.19,6.535,26.324,9.167c0.873,0.252,3.401-1.055,1.789-1.52c-5.914-1.704-11.828-3.408-17.742-5.112
			c-4.154-1.197-8.821-4.309-13.062-6.578c-10.656-5.703-19.894-11.651-30.105-18.46c-17.623-11.749-34.674-24.373-51.925-36.656
			C78.655,22.322,62.587,10.881,46.519-0.56C45.708-1.138,43.075,0.021,43.823,0.553L43.823,0.553z"/>
		<path fill="#575756" d="M211.353,95.326c-2.667,1.605-5.246,4.146-5.056,7.528c0.209,3.7,2.729,6.318,5.799,8.093
			c0.813,0.471,3.49-0.711,2.309-1.395c-5.424-3.137-7.353-9.707-1.257-13.379C214.827,95.163,212.279,94.768,211.353,95.326
			L211.353,95.326z"/>
	</g>
	<g>
		<path fill="#878787" d="M0.638,71.28c11.352-4.64,22.736-6.39,34.703-8.633c10.987-2.059,20.973-7.098,31.292-11.146
			c10.314-4.045,20.41-8.854,30.131-14.159c9.13-4.983,17.464-11.141,26.3-16.586c1.67-1.029-0.739-2.02-1.914-1.296
			c-9.129,5.625-17.756,11.89-27.19,17.039c-9.754,5.324-19.98,9.943-30.322,14c-11.338,4.447-21.923,9.166-34.066,11.099
			c-10.483,1.668-20.355,3.978-30.208,8.005C-2.48,70.355-0.843,71.885,0.638,71.28L0.638,71.28z"/>
		<path fill="#878787" d="M212.933,93.988c-8.991,0.334-13.78-4.416-19.217-10.53c-4.763-5.355-9.362-10.859-13.955-16.36
			c-4.271-5.114-8.506-10.257-12.728-15.412c-2.054-2.507-3.955-5.366-6.406-7.51c-5.644-4.935-12.635-8.61-19.043-12.437
			c-6.452-3.853-12.725-7.988-19.227-11.761c-5.96-3.459-11.79-7.206-17.866-10.461c-2.165-1.159-4.391-2.204-6.608-3.256
			c-4.235-2.009-7.928-4.546-12.025-6.783c-0.793-0.433-3.245,0.754-2.716,1.043c3.085,1.684,5.826,3.888,9.004,5.377
			c3.229,1.512,6.473,3.004,9.629,4.662c6.097,3.202,11.912,7.006,17.867,10.46c6.502,3.772,12.771,7.914,19.227,11.761
			c6.778,4.04,14.344,7.931,20.103,13.401c2.381,2.262,4.321,5.295,6.397,7.829c4.808,5.866,9.642,11.711,14.517,17.522
			c4.329,5.162,8.68,10.314,13.211,15.3c5.291,5.822,10.58,8.801,18.629,8.501C212.604,95.304,214.869,93.916,212.933,93.988
			L212.933,93.988z"/>
		<path fill="#878787" d="M122.98,20.444c7.34-3.696,13.771-3.833,21.824-2.13c8.612,1.821,16.79,5.284,24.991,8.385
			c6.254,2.365,12.471,3.685,19.094,2.284c2.54-0.537,4.837-2.085,6.935-3.528c4.98-3.426,8.943-5.772,15.249-5.731
			c0.963,0.006,3.128-1.444,1.178-1.457c-6.992-0.046-12.052,1.972-17.611,6.068c-10.646,7.844-22.516,0.956-33.304-3.035
			c-7.928-2.933-16.253-5.368-24.738-5.733c-5.618-0.242-10.464,1.736-15.365,4.203C119.498,20.644,122.141,20.867,122.98,20.444
			L122.98,20.444z"/>
	</g>
	<g id="Calque_5">
		<polygon fill="#878787" points="157.662,10.027 141.248,0.432 141.752,-0.432 157.838,8.973 163.758,7.789 166.484,5.141 
			167.182,5.859 164.242,8.711 		"/>
		
			<rect x="100.125" y="65.774" transform="matrix(0.9543 0.2989 -0.2989 0.9543 27.3899 -26.59)" fill="#878787" width="1" height="20.953"/>
		<polygon fill="#878787" points="201.959,21.339 166.634,5.958 157.735,0.424 158.265,-0.424 167.098,5.076 201.375,19.995 
			208.528,-0.167 209.472,0.167 		"/>
		<polygon fill="#878787" points="169.372,93.205 148.371,78.023 145.235,78.472 139.584,84.124 116.546,70.959 103.595,66.725 
			66.901,53.496 61.726,53.25 61.774,52.25 67.169,52.53 103.919,65.78 116.998,70.066 139.416,82.876 144.765,77.528 
			148.629,76.977 169.128,91.795 182.125,72.905 181.33,69.887 181.334,69.811 182.361,47.333 186.375,36.005 191.396,26.925 
			192.271,27.409 187.284,36.414 183.329,47.597 182.336,69.78 183.209,73.095 		"/>
		<polygon fill="#878787" points="49.773,57.651 47.851,51.61 61.999,49.038 65.886,44.907 67.759,42.325 68.501,29.222 
			67.526,20.263 60.691,14.893 40.113,2.004 31.643,2.246 23.154,7.24 3.664,8.739 0.271,10.92 -0.271,10.08 3.336,7.761 
			22.846,6.26 31.357,1.254 40.387,0.996 40.516,1.076 61.266,14.076 68.475,19.737 69.497,29.196 68.741,42.675 66.654,45.544 
			62.501,49.962 49.149,52.39 50.727,57.349 		"/>
		
			<rect x="125.249" y="7.875" transform="matrix(0.3972 0.9177 -0.9177 0.3972 88.6841 -118.2707)" fill="#878787" width="18.252" height="1"/>
		<polygon fill="#878787" points="203.296,123.3 202.743,116.947 204.485,111.225 203.802,107.81 194.056,101.718 182.386,98.987 
			169.555,93.187 167.374,99.971 154.909,101.01 147.678,97.635 144.416,102.527 143.584,101.973 147.322,96.365 155.091,99.99 
			166.626,99.029 168.945,91.813 182.706,98.045 194.515,100.826 204.698,107.19 205.515,111.275 203.757,117.053 204.204,122.2 
			212.548,121.337 212.651,122.331 		"/>
	</g>
</g>
<g id="Calque_14">
	<linearGradient id="SVGID_1_" gradientUnits="userSpaceOnUse" x1="71.1255" y1="141.7305" x2="71.1255" y2="107.25">
		<stop  offset="0" style="stop-color:#FFFFFF"/>
		<stop  offset="0.8587" style="stop-color:#FFFFFF;stop-opacity:0.1413"/>
		<stop  offset="1" style="stop-color:#FFFFFF;stop-opacity:0"/>
	</linearGradient>
	<rect y="107.25" opacity="0.8" fill="url(#SVGID_1_)" width="142.25" height="34.48"/>
	<g id="Calque_15">
		<path fill="#EFCD00" d="M59.726,129.912c0,0,18.987,1.003,20.545,1.254c1.559,0.249,3.613,1.586,3.613,1.586l1.488,2.674
			l-17.003-2.005L59.726,129.912z"/>
		<path fill="#8BB31D" d="M96.75,136.855c0,0-0.847-1.93-1.649-2.153c-2.04-0.567-10.726-0.972-10.726-0.972l-0.137,1.695
			L96.75,136.855z"/>
		<path fill="#E18800" d="M5.125,119.355c0,0,3.126,1.105,7.755,1.275c12.862,0.474,37.327,0.449,38.577,1.063
			c1.701,0.836,4.109,4.178,4.109,4.178l3.258,4.51L8.384,121.36L5.125,119.355z"/>
		<g>
			<path fill="#B2B2B2" d="M109.75,138.105c-14.125-2.375-36.422-4.685-49.458-8.36c-3.117-1.003-7.368-1.337-10.202-3.341
				c-2.834-1.67-5.094-4.535-7.935-6.349c-6.801-4.345-10.107,5.347-16.058,4.01l6.706,3.842l12.043,3.342l13.319,2.005
				l12.752,2.172l13.744,0.166L109.75,138.105z"/>
		</g>
	</g>
	<g id="Calque_16">
		<path fill="#878787" d="M12.188,129.745c4.63-0.341,8.155-3.376,12.524-4.545c0.889-0.238,0.639-1.17-0.25-0.932
			c-4.207,1.126-7.698,4.149-12.13,4.475C11.539,128.802,11.195,129.818,12.188,129.745L12.188,129.745z"/>
		<path fill="#878787" d="M24.772,132.87c2.867-1.15,5.558-2.613,8.218-4.177c0.845-0.496,0.075-1.333-0.655-0.904
			c-2.66,1.563-5.351,3.027-8.218,4.177C23.198,132.335,24.009,133.176,24.772,132.87L24.772,132.87z"/>
		<path fill="#878787" d="M35.628,133.506c2.11-0.929,4.305-1.543,5.825-3.391c0.161-0.195-0.547-0.131-0.576-0.125
			c-0.292,0.053-0.655,0.147-0.852,0.387c-1.342,1.632-3.371,2.142-5.227,2.959C33.925,133.72,35.297,133.652,35.628,133.506
			L35.628,133.506z"/>
		<path fill="#878787" d="M43.941,135.52c1.421-1.108,2.43-2.854,4.15-3.538c0.098-0.038,0.511-0.276,0.191-0.327
			c-0.333-0.053-0.705,0.077-1.009,0.198c-1.952,0.776-3.031,2.562-4.634,3.812c-0.26,0.202,0.232,0.199,0.329,0.188
			C43.292,135.816,43.678,135.725,43.941,135.52L43.941,135.52z"/>
		<path fill="#878787" d="M51.685,136.968c2.406-0.453,4.346-1.762,5.594-3.881c0.331-0.561-1.117-0.382-1.341-0.002
			c-0.913,1.549-2.224,2.795-4.041,3.137c-0.266,0.05-0.74,0.159-0.829,0.472C50.982,136.997,51.523,136.998,51.685,136.968
			L51.685,136.968z"/>
		<path fill="#878787" d="M60.583,138.199c2.284-0.498,4.47-1.546,6.357-2.919c0.591-0.43-0.857-0.226-1.109-0.043
			c-1.471,1.07-3.187,2.035-4.979,2.427C60.287,137.787,59.571,138.42,60.583,138.199L60.583,138.199z"/>
		<path fill="#878787" d="M108.906,141.676c1.082-0.933,2.266-1.672,3.408-2.521c0.587-0.437-0.859-0.229-1.109-0.043
			c-1.21,0.899-2.464,1.685-3.611,2.673c-0.256,0.22,0.226,0.247,0.343,0.237C108.264,141.995,108.651,141.896,108.906,141.676
			L108.906,141.676z"/>
		<path fill="#878787" d="M67.133,140.324c3.407-0.578,6.065-2.337,8.908-4.193c0.821-0.536-0.444-0.699-0.893-0.406
			c-2.474,1.615-4.831,3.317-7.811,3.824C66.661,139.663,66.131,140.495,67.133,140.324L67.133,140.324z"/>
		<path fill="#878787" d="M80.417,139.519c1.61-1.348,3.44-2.394,5.101-3.676c0.632-0.488-0.822-0.416-1.144-0.168
			c-1.661,1.281-3.49,2.327-5.101,3.676C78.655,139.867,80.103,139.782,80.417,139.519L80.417,139.519z"/>
		<path fill="#878787" d="M90.292,141.104c1.022-1.634,2.639-2.749,4.306-3.655c0.182-0.099,0.453-0.388,0.139-0.519
			c-0.317-0.134-0.738-0.008-1.023,0.147c-1.823,0.992-3.642,2.241-4.762,4.03C88.613,141.648,90.061,141.474,90.292,141.104
			L90.292,141.104z"/>
		<path fill="#878787" d="M99.068,140.737c1.337-1.161,3.107-1.586,4.251-3.008c0.329-0.408-1.087-0.225-1.322,0.068
			c-1.118,1.389-2.928,1.857-4.251,3.008c-0.265,0.229,0.229,0.299,0.357,0.292C98.447,141.08,98.806,140.966,99.068,140.737
			L99.068,140.737z"/>
		<path fill="#878787" d="M6.588,125.339c2.516-1.133,5.368-1.271,8.002-2.04c0.838-0.244,0.718-0.718-0.126-0.471
			c-2.897,0.845-5.94,1.05-8.717,2.3C4.873,125.521,6.235,125.498,6.588,125.339L6.588,125.339z"/>
		<path fill="#878787" d="M1.262,119.723c7.81,4.841,18.091,3.606,26.627,6.44c2.166,0.72,3.941,2.159,6.043,3.008
			c2.851,1.15,5.71,1.814,8.745,2.271c6.44,0.968,12.822,1.793,19.21,3.103c5.9,1.21,11.671,1.34,17.658,1.704
			c7.214,0.439,14.46,1.182,21.656,1.867c5.083,0.483,10.17,1.136,15.146,2.297c1.974,0.461,5.878,1.135,6.703,3.352
			c0.274,0.735,3.129-0.158,2.898-0.777c-1.5-4.026-10.815-4.55-14.099-5.031c-13.043-1.912-26.252-2.445-39.383-3.299
			c-6.606-0.429-13.167-2.363-19.698-3.412c-6.715-1.079-13.108-1.21-19.169-4.675c-9.068-5.185-20.754-2.361-29.613-7.853
			C3.263,118.268,0.816,119.446,1.262,119.723L1.262,119.723z"/>
	</g>
	<g id="Calque_17">
		<g>
			<rect x="5.5" y="119.105" fill="#80C2E8" width="1" height="0.5"/>
			<path fill="#80C2E8" d="M50.5,119.605h-2v-0.5h2V119.605z M46.5,119.605h-2v-0.5h2V119.605z M42.5,119.605h-2v-0.5h2V119.605z
				 M38.5,119.605h-2v-0.5h2V119.605z M34.5,119.605h-2v-0.5h2V119.605z M30.5,119.605h-2v-0.5h2V119.605z M26.5,119.605h-2v-0.5h2
				V119.605z M22.5,119.605h-2v-0.5h2V119.605z M18.5,119.605h-2v-0.5h2V119.605z M14.5,119.605h-2v-0.5h2V119.605z M10.5,119.605
				h-2v-0.5h2V119.605z"/>
			<rect x="52.5" y="119.105" fill="#80C2E8" width="1" height="0.5"/>
		</g>
		<g>
			<rect x="61" y="129.855" fill="#80C2E8" width="1" height="0.5"/>
			<path fill="#80C2E8" d="M108.2,130.355h-1.925v-0.5h1.925V130.355z M104.35,130.355h-1.925v-0.5h1.925V130.355z M100.5,130.355
				h-1.925v-0.5h1.925V130.355z M96.65,130.355h-1.925v-0.5h1.925V130.355z M92.8,130.355h-1.925v-0.5H92.8V130.355z M88.95,130.355
				h-1.925v-0.5h1.925V130.355z M85.1,130.355h-1.925v-0.5H85.1V130.355z M81.25,130.355h-1.925v-0.5h1.925V130.355z M77.4,130.355
				h-1.925v-0.5H77.4V130.355z M73.55,130.355h-1.925v-0.5h1.925V130.355z M69.7,130.355h-1.925v-0.5H69.7V130.355z M65.85,130.355
				h-1.925v-0.5h1.925V130.355z"/>
			<rect x="110.125" y="129.855" fill="#80C2E8" width="1" height="0.5"/>
		</g>
		<g>
			<rect x="84.25" y="133.48" fill="#80C2E8" width="1" height="0.5"/>
			<path fill="#80C2E8" d="M138.293,133.98h-2.04v-0.5h2.04V133.98z M134.213,133.98h-2.04v-0.5h2.04V133.98z M130.133,133.98
				h-2.041v-0.5h2.041V133.98z M126.052,133.98h-2.04v-0.5h2.04V133.98z M121.972,133.98h-2.04v-0.5h2.04V133.98z M117.892,133.98
				h-2.04v-0.5h2.04V133.98z M113.812,133.98h-2.04v-0.5h2.04V133.98z M109.731,133.98h-2.04v-0.5h2.04V133.98z M105.651,133.98
				h-2.04v-0.5h2.04V133.98z M101.571,133.98h-2.04v-0.5h2.04V133.98z M97.491,133.98h-2.04v-0.5h2.04V133.98z M93.41,133.98h-2.04
				v-0.5h2.04V133.98z M89.33,133.98h-2.04v-0.5h2.04V133.98z"/>
			<rect x="140.333" y="133.48" fill="#80C2E8" width="1" height="0.5"/>
		</g>
		<polygon fill="#80C2E8" points="142.25,136 96.375,136.105 111.875,138.5 115.5,139.125 124.875,141.73 142.25,141.73 		"/>
		<linearGradient id="SVGID_2_" gradientUnits="userSpaceOnUse" x1="70.0645" y1="123.4951" x2="69.0728" y2="112.1605">
			<stop  offset="0.1596" style="stop-color:#FFFFFF;stop-opacity:0"/>
			<stop  offset="1" style="stop-color:#81C2E7"/>
		</linearGradient>
		<path fill="url(#SVGID_2_)" d="M51.534,121.701c7.091-9.346,18.341-9.596,18.341-9.596l17.5-0.75v10.625"/>
		<g>
			<g>
				<path fill="none" stroke="#81C2E7" stroke-miterlimit="10" d="M51.534,121.701c0.204-0.269,0.411-0.529,0.622-0.783"/>
				<path fill="none" stroke="#81C2E7" stroke-miterlimit="10" stroke-dasharray="1.9909,1.9909" d="M53.491,119.44
					c7.026-7.127,16.384-7.335,16.384-7.335l12.507-0.646"/>
				<line fill="none" stroke="#81C2E7" stroke-miterlimit="10" x1="83.376" y1="111.407" x2="84.375" y2="111.355"/>
			</g>
		</g>
	</g>
</g>
<g id="Calque_13">
	<text transform="matrix(1 0 0 1 116.5 133.083)" fill="#3C3C3B" font-family="'Verdana'" font-size="10">+3m</text>
	<text transform="matrix(1 0 0 1 105 39.25)" fill="#3C3C3B" font-family="'Verdana'" font-size="12">+10m</text>
	<text transform="matrix(1 0 0 1 89.5 61.25)" fill="#3C3C3B" font-family="'Verdana'" font-size="12">+3m</text>
	<text transform="matrix(1 0 0 1 80.4165 128.917)" fill="#3C3C3B" font-family="'Verdana'" font-size="10">+10m</text>
	<text transform="matrix(1 0 0 1 96.25 13.75)" fill="#3C3C3B" font-family="'Verdana'" font-size="12">+30m</text>
	<text transform="matrix(1 0 0 1 6.25 118.25)" fill="#3C3C3B" font-family="'Verdana'" font-size="10">+30m</text>
	<text transform="matrix(1 0 0 1 60.125 120.375)" fill="#699DBA" font-family="'Verdana'" font-size="8">glacier</text>
	<text transform="matrix(0.9245 -0.3811 0.3811 0.9245 1.8809 32.1113)" fill="#575756" font-family="'Verdana'" font-size="8">moraine</text>
	<text transform="matrix(0.9157 0.4018 -0.4018 0.9157 160.6035 12.6094)" fill="#575756" font-family="'Verdana'" font-size="8">moraine</text>
	<g>
		
			<text transform="matrix(-4.371139e-008 -1 1 -4.371139e-008 208.9033 70.4858)" fill="#FFFFFF" font-family="'Verdana'" font-size="8">200 m</text>
		
			<text transform="matrix(-4.371139e-008 -1 1 -4.371139e-008 208.9033 86.6299)" fill="#FFFFFF" font-family="'Verdana'" font-size="8">0</text>
		<polygon fill="#FFFFFF" points="201.548,84.539 198.531,84.539 198.531,62.587 201.548,62.587 201.548,63.087 199.031,63.087 
			199.031,73.313 201.548,73.313 201.548,73.813 199.031,73.813 199.031,84.039 201.548,84.039 		"/>
	</g>
</g>
</svg>
